<svg width="32" height="32" viewBox="0 0 32 32" fill="none" xmlns="http://www.w3.org/2000/svg">
<mask id="mask0_5187_2562" style="mask-type:alpha" maskUnits="userSpaceOnUse" x="0" y="0" width="32" height="32">
<rect width="32" height="32" fill="#D9D9D9"/>
</mask>
<g mask="url(#mask0_5187_2562)">
<path d="M16 23.3333C17.6666 23.3333 19.0833 22.75 20.25 21.5833C21.4166 20.4167 22 19 22 17.3333C22 15.6667 21.4166 14.25 20.25 13.0833C19.0833 11.9167 17.6666 11.3333 16 11.3333C14.3333 11.3333 12.9166 11.9167 11.75 13.0833C10.5833 14.25 9.99996 15.6667 9.99996 17.3333C9.99996 19 10.5833 20.4167 11.75 21.5833C12.9166 22.75 14.3333 23.3333 16 23.3333ZM16 20.6667C15.0666 20.6667 14.2777 20.3444 13.6333 19.7C12.9888 19.0556 12.6666 18.2667 12.6666 17.3333C12.6666 16.4 12.9888 15.6111 13.6333 14.9667C14.2777 14.3222 15.0666 14 16 14C16.9333 14 17.7222 14.3222 18.3666 14.9667C19.0111 15.6111 19.3333 16.4 19.3333 17.3333C19.3333 18.2667 19.0111 19.0556 18.3666 19.7C17.7222 20.3444 16.9333 20.6667 16 20.6667ZM5.33329 28C4.59996 28 3.97218 27.7389 3.44996 27.2167C2.92774 26.6944 2.66663 26.0667 2.66663 25.3333V9.33333C2.66663 8.6 2.92774 7.97222 3.44996 7.45C3.97218 6.92778 4.59996 6.66667 5.33329 6.66667H9.53329L12 4H20L22.4666 6.66667H26.6666C27.4 6.66667 28.0277 6.92778 28.55 7.45C29.0722 7.97222 29.3333 8.6 29.3333 9.33333V25.3333C29.3333 26.0667 29.0722 26.6944 28.55 27.2167C28.0277 27.7389 27.4 28 26.6666 28H5.33329ZM5.33329 25.3333H26.6666V9.33333H21.2666L18.8333 6.66667H13.1666L10.7333 9.33333H5.33329V25.3333Z" fill="white"/>
</g>
</svg>
