<svg width="138" height="24" viewBox="0 0 138 24" fill="none" xmlns="http://www.w3.org/2000/svg">
<g clip-path="url(#clip0_5179_2490)">
<path d="M34.6982 19.2935H29.832V0.384171H37.0255L38.956 7.4454L39.9348 10.9632H39.9877L40.9666 7.4454L42.897 0.384171H50.1434V19.2935H45.145V7.4454H45.092L44.1661 10.8838L41.9447 19.2935H37.8985L34.7512 7.4454H34.6982V19.2935Z" fill="#AFAFAF"/>
<path d="M51.6243 12.5774C51.6243 8.47838 54.5336 5.41035 59.0294 5.41035C63.5253 5.41035 66.3816 8.47838 66.3816 12.5774C66.3816 16.6764 63.5253 19.718 59.0294 19.718C54.5336 19.718 51.6243 16.6764 51.6243 12.5774ZM61.3038 12.5774C61.3038 10.303 60.5101 8.76939 58.9765 8.76939C57.4429 8.76939 56.7021 10.303 56.7021 12.5774C56.7021 14.8518 57.4429 16.3854 58.9765 16.3854C60.5101 16.3854 61.3038 14.8518 61.3038 12.5774Z" fill="#AFAFAF"/>
<path d="M67.6245 5.80622H72.3849V7.65731H72.4643C73.5489 6.17659 74.9238 5.38293 76.8014 5.38293C79.9223 5.38293 81.5353 7.47213 81.5353 10.5666V19.2937H76.5368V11.7828C76.5368 10.3814 75.9548 9.4555 74.6593 9.4555C73.3637 9.4555 72.623 10.5666 72.623 12.0209V19.2937H67.6245V5.80622Z" fill="#AFAFAF"/>
<path d="M83.5465 14.9423V8.35727H81.8013V5.34215H83.5465V0.978584H88.4392V5.34215H91.0046V8.35727H88.4392V13.8319C88.4392 14.9166 89.0741 15.1539 90.1316 15.1275C90.3697 15.1275 90.6607 15.1275 90.9517 15.101V18.7768C90.1845 18.962 89.3916 19.0942 88.4921 19.0942C85.2125 19.0942 83.5465 18.1683 83.5465 14.9423Z" fill="#AFAFAF"/>
<path d="M92.4031 15.595C92.4031 12.6064 94.7039 11.7341 97.2957 11.4431C100.152 11.1256 100.919 10.7817 100.919 9.93591C100.919 9.19517 100.575 8.64037 99.4915 8.64037C98.4076 8.64037 97.8521 9.27529 97.7198 10.2534H92.9858C93.0917 7.58216 95.1544 5.38715 99.3857 5.38715C101.448 5.38715 102.771 5.6517 103.802 6.28662C105.204 7.15964 105.891 8.53455 105.891 10.3327V17.0765C105.891 18.2133 105.971 18.8218 106.394 19.0863V19.298H101.475C101.29 18.9805 101.131 18.5572 101.025 17.8172H100.972C100.073 19.0599 98.645 19.6419 96.8997 19.6419C94.3078 19.6419 92.4038 18.2405 92.4038 15.5958L92.4031 15.595ZM101.051 14.4045V13.2141C100.575 13.4522 99.9669 13.6638 99.1204 13.849C97.6661 14.1664 97.2164 14.5897 97.2164 15.3826C97.2164 16.2821 97.9571 16.6782 98.7765 16.6782C99.9397 16.6782 101.051 16.0168 101.051 14.4038V14.4045Z" fill="#AFAFAF"/>
<path d="M107.504 19.5318H112.317C112.502 20.0874 113.137 20.6694 114.327 20.6694C115.94 20.6694 116.495 19.717 116.495 18.3157V17.0987H116.39C115.596 17.9982 114.539 18.6324 112.978 18.6324C109.91 18.6324 107.239 16.4903 107.239 12.259C107.239 8.39805 109.434 5.38293 112.74 5.38293C114.644 5.38293 115.808 6.12368 116.575 7.28694H116.654V5.80622H121.415V17.6807C121.415 19.8493 120.621 21.5152 119.431 22.5205C118.189 23.5779 116.416 24.0012 114.406 24.0012C110.625 24.0012 107.98 22.5205 107.504 19.5318ZM116.707 12.0473C116.707 10.355 115.861 9.00576 114.406 9.00576C112.952 9.00576 112.105 10.2227 112.105 12.0473C112.105 13.872 113.005 15.1418 114.406 15.1418C115.808 15.1418 116.707 13.8198 116.707 12.0473Z" fill="#AFAFAF"/>
<path d="M122.659 12.5268C122.659 8.45422 125.595 5.35973 129.853 5.35973C131.969 5.35973 133.582 6.04756 134.825 7.18437C136.464 8.69155 137.232 11.0982 137.179 13.7694H127.552C127.843 15.3295 128.69 16.2819 130.197 16.2819C131.07 16.2819 131.704 15.938 132.074 15.2766H136.914C136.623 16.4935 135.672 17.6832 134.349 18.5298C133.106 19.3234 131.757 19.6666 130.038 19.6666C125.622 19.6666 122.659 16.6522 122.659 12.5268ZM132.207 11.1247C131.995 9.61748 131.149 8.71801 129.959 8.71801C128.584 8.71801 127.817 9.64394 127.552 11.1247H132.207Z" fill="#AFAFAF"/>
<path d="M21.1293 1.25116V19.7488C21.1293 20.3275 20.6601 20.7975 20.0807 20.7975H14.8954C14.541 20.7975 14.2073 20.7096 13.9146 20.5532L13.7805 20.4762L7.35238 16.7648L5.67428 19.6695L5.66657 19.6826L5.64346 19.7234L5.60802 19.7835L5.58953 19.8151C5.21815 20.4053 4.5617 20.7959 3.81434 20.7959H0.649209C0.0705785 20.7959 -0.399414 20.3259 -0.399414 19.7473V1.25116C-0.399414 0.67253 0.0705785 0.202538 0.649209 0.202538H3.8128C4.57326 0.202538 5.23819 0.607039 5.60648 1.21187L7.35084 4.23292L13.309 0.793495L13.359 0.764988L13.8075 0.506877L13.8945 0.456796C14.1927 0.294995 14.5333 0.203308 14.8946 0.203308H20.0799C20.6601 0.203308 21.1286 0.673301 21.1286 1.25193L21.1293 1.25116Z" fill="#AFAFAF"/>
</g>
<defs>
<clipPath id="clip0_5179_2490">
<rect width="137.181" height="24" fill="white"/>
</clipPath>
</defs>
</svg>
