<svg width="103" height="19" viewBox="0 0 103 19" fill="none" xmlns="http://www.w3.org/2000/svg">
<g clip-path="url(#clip0_5207_938)">
<path d="M26.052 14.4888H22.3983V0.291016H27.7994L29.2489 5.59283L29.9838 8.23409H30.0236L30.7585 5.59283L32.208 0.291016H37.6488V14.4888H33.8958V5.59283H33.856L33.1608 8.1745L31.4929 14.4888H28.4549L26.0917 5.59283H26.052V14.4888Z" fill="#40444C"/>
<path d="M38.7601 9.44279C38.7601 6.3651 40.9445 4.06152 44.3202 4.06152C47.6958 4.06152 49.8405 6.3651 49.8405 9.44279C49.8405 12.5205 47.6958 14.8042 44.3202 14.8042C40.9445 14.8042 38.7601 12.5205 38.7601 9.44279ZM46.0278 9.44279C46.0278 7.73511 45.4319 6.5836 44.2804 6.5836C43.1289 6.5836 42.5728 7.73511 42.5728 9.44279C42.5728 11.1505 43.1289 12.302 44.2804 12.302C45.4319 12.302 46.0278 11.1505 46.0278 9.44279Z" fill="#40444C"/>
<path d="M50.7735 4.36371H54.3478V5.75358H54.4074C55.2218 4.6418 56.2541 4.0459 57.6638 4.0459C60.0071 4.0459 61.2182 5.61454 61.2182 7.93798V14.4906H57.4652V8.85113C57.4652 7.79894 57.0282 7.10372 56.0555 7.10372C55.0827 7.10372 54.5266 7.93798 54.5266 9.0299V14.4906H50.7735V4.36371Z" fill="#40444C"/>
<path d="M63.0671 11.5694V6.62513H61.7567V4.36128H63.0671V1.08496H66.7407V4.36128H68.6669V6.62513H66.7407V10.7357C66.7407 11.5501 67.2174 11.7283 68.0114 11.7084C68.1902 11.7084 68.4086 11.7084 68.6271 11.6886V14.4485C68.0511 14.5875 67.4558 14.6868 66.7804 14.6868C64.3179 14.6868 63.0671 13.9916 63.0671 11.5694Z" fill="#40444C"/>
<path d="M69.379 11.7103C69.379 9.46632 71.1065 8.8114 73.0526 8.5929C75.1973 8.35454 75.7733 8.09632 75.7733 7.46126C75.7733 6.90509 75.5151 6.48852 74.7012 6.48852C73.8874 6.48852 73.4703 6.96524 73.371 7.69962H69.8166C69.896 5.69399 71.4448 4.0459 74.6218 4.0459C76.1706 4.0459 77.1637 4.24453 77.9378 4.72125C78.99 5.37674 79.5065 6.40907 79.5065 7.75921V12.8227C79.5065 13.6762 79.5661 14.1331 79.8839 14.3317V14.4906H76.1904C76.0514 14.2523 75.9322 13.9344 75.8527 13.3788H75.813C75.1377 14.3118 74.0656 14.7488 72.7552 14.7488C70.8092 14.7488 69.3796 13.6966 69.3796 11.7109L69.379 11.7103ZM75.872 10.8165V9.92261C75.5145 10.1014 75.0582 10.2603 74.4226 10.3993C73.3307 10.6377 72.993 10.9555 72.993 11.5508C72.993 12.2262 73.5492 12.5236 74.1644 12.5236C75.0378 12.5236 75.872 12.027 75.872 10.8159V10.8165Z" fill="#40444C"/>
<path d="M80.7181 14.6694H84.3321C84.4712 15.0865 84.9479 15.5235 85.8412 15.5235C87.0523 15.5235 87.4694 14.8084 87.4694 13.7562V12.8425H87.39C86.7941 13.5179 86.0001 13.994 84.8287 13.994C82.5251 13.994 80.5195 12.3857 80.5195 9.20867C80.5195 6.30975 82.1676 4.0459 84.65 4.0459C86.0795 4.0459 86.9535 4.60207 87.529 5.47549H87.5886V4.36371H91.1629V13.2795C91.1629 14.9077 90.567 16.1586 89.6737 16.9134C88.7407 17.7073 87.4098 18.0252 85.9008 18.0252C83.0615 18.0252 81.0757 16.9134 80.7181 14.6694ZM87.6283 9.04976C87.6283 7.77907 86.9927 6.76604 85.9008 6.76604C84.8089 6.76604 84.1732 7.67976 84.1732 9.04976C84.1732 10.4198 84.8486 11.3732 85.9008 11.3732C86.953 11.3732 87.6283 10.3806 87.6283 9.04976Z" fill="#40444C"/>
<path d="M92.0965 9.40763C92.0965 6.34981 94.3007 4.02637 97.4976 4.02637C99.0861 4.02637 100.297 4.54281 101.231 5.39637C102.462 6.52801 103.038 8.33501 102.998 10.3406H95.7701C95.9885 11.512 96.6242 12.2271 97.7558 12.2271C98.4113 12.2271 98.8875 11.9689 99.1655 11.4723H102.799C102.581 12.386 101.866 13.2793 100.873 13.9149C99.9402 14.5108 98.9272 14.7685 97.6366 14.7685C94.3206 14.7685 92.0965 12.5046 92.0965 9.40707V9.40763ZM99.2649 8.35487C99.106 7.22323 98.4709 6.54788 97.577 6.54788C96.5447 6.54788 95.9687 7.24309 95.7701 8.35487H99.2649Z" fill="#40444C"/>
<path d="M15.8578 0.774354V14.3995C15.8578 14.8257 15.5121 15.1719 15.0854 15.1719H11.2659C11.0049 15.1719 10.7591 15.1072 10.5435 14.992L10.4447 14.9352L5.70986 12.2015L4.47379 14.341L4.46812 14.3507L4.45109 14.3807L4.42499 14.425L4.41137 14.4483C4.13782 14.883 3.65429 15.1707 3.10379 15.1707H0.772401C0.34619 15.1707 0 14.8246 0 14.3983V0.774354C0 0.348143 0.34619 0.00195312 0.772401 0.00195312H3.10266C3.6628 0.00195312 4.15258 0.299903 4.42385 0.74541L5.70873 2.97067L10.0974 0.437244L10.1343 0.416246L10.4646 0.226125L10.5287 0.189236C10.7483 0.070056 10.9992 0.00252065 11.2654 0.00252065H15.0848C15.5121 0.00252065 15.8572 0.34871 15.8572 0.774921L15.8578 0.774354Z" fill="#40444C"/>
</g>
<defs>
<clipPath id="clip0_5207_938">
<rect width="103" height="18.02" fill="white"/>
</clipPath>
</defs>
</svg>
